#!OML:ASF F:\VICON\USERDATA\INSTALL\rory3\rory3.ASF
:FULLY-SPECIFIED
:DEGREES
124
root 1.78872 18.0781 -5.69151 -5.55704 -4.26236 1.9117
lowerback 15.2263 1.46085 -1.20527
upperback -0.324096 1.83488 1.22196
thorax -8.99581 0.96829 1.58055
lowerneck -10.9455 -1.10898 -3.284
upperneck 23.5963 -0.853037 -0.0740375
head 9.23147 -0.697139 0.435868
rclavicle -1.31012e-014 5.56597e-015
rhumerus -34.3277 -8.31165 -78.1038
rradius 29.7288
rwrist 2.53373
rhand -14.0248 13.9892
rfingers 7.12502
rthumb 12.1052 -15.6406
lclavicle -1.31012e-014 5.56597e-015
lhumerus -40.1553 5.74023 85.4679
lradius 36.6899
lwrist 5.79789
lhand -12.9803 50.9444
lfingers 7.12502
lthumb 13.1122 80.5122
rfemur -3.75747 2.27923 21.289
rtibia 63.8651
rfoot 14.7096 -7.39671
rtoes 9.29777
lfemur -11.93 -5.30053 -25.4288
ltibia 23.4784
lfoot -2.77667 -1.55468
ltoes -3.44351
125
root 1.78075 18.0775 -5.56154 -5.66686 -3.79303 2.06365
lowerback 15.7485 1.25036 -1.44982
upperback -0.312596 1.50577 1.22353
thorax -9.27335 0.822796 1.78969
lowerneck -10.7501 -1.16455 -3.30589
upperneck 23.5775 -0.893505 -0.248191
head 9.18886 -0.736855 0.376245
rclavicle 1.57164e-014 7.95139e-016
rhumerus -34.2568 -8.18475 -78.1869
rradius 29.5484
rwrist 3.0509
rhand -14.1775 13.9405
rfingers 7.12502
rthumb 11.958 -15.6979
lclavicle 1.57164e-014 7.95139e-016
lhumerus -39.9538 5.52099 85.5075
lradius 36.7568
lwrist 5.82278
lhand -13.5029 50.6436
lfingers 7.12502
lthumb 12.6084 80.2431
rfemur -5.4502 1.48917 21.0238
rtibia 66.1362
rfoot 12.776 -8.26243
rtoes 8.33019
lfemur -11.2357 -5.45083 -25.7239
ltibia 23.2429
lfoot -3.09316 -1.85334
ltoes -3.50558
126
root 1.77405 18.079 -5.41673 -5.79466 -3.68056 2.21864
lowerback 16.0299 1.14205 -1.73001
upperback -0.0559205 1.3115 1.29606
thorax -9.1515 0.741011 2.07136
lowerneck -11.6476 -0.805652 -2.98519
upperneck 23.3483 -0.359048 -0.515705
head 9.26734 -0.48606 0.286915
rclavicle 2.08724e-015 -4.77083e-015
rhumerus -33.5689 -8.00335 -78.2992
rradius 29.1687
rwrist 3.40436
rhand -14.3116 14.0788
rfingers 7.12502
rthumb 11.8286 -15.5671
lclavicle 2.08724e-015 -4.77083e-015
lhumerus -39.3861 5.41456 85.6648
lradius 37.0549
lwrist 5.9202
lhand -13.5929 50.2068
lfingers 7.12502
lthumb 12.5216 79.8116
rfemur -7.06683 1.04215 20.7973
rtibia 68.1825
rfoot 11.5469 -9.05176
rtoes 9.4849
lfemur -10.483 -5.57385 -26.0047
ltibia 23.0413
lfoot -3.47946 -1.71604
ltoes -3.88849
127
root 1.78352 18.09 -5.24354 -6.03303 -3.95328 2.67344
lowerback 15.9485 1.27552 -2.10366
upperback -0.231981 1.40859 1.16669
thorax -9.30972 0.804946 2.12093
lowerneck -10.1983 -0.918596 -2.97026
upperneck 23.2324 -0.576937 -0.524542
head 8.95745 -0.584313 0.262674
rclavicle 6.52883e-015 -1.19271e-014
rhumerus -34.4009 -7.78302 -78.2949
rradius 29.3016
rwrist 3.29598
rhand -14.332 13.9951
rfingers 7.12502
rthumb 11.8089 -15.652
lclavicle 6.52883e-015 -1.19271e-014
lhumerus -40.0404 4.86672 85.6985
lradius 37.5431
lwrist 6.04951
lhand -13.2581 50.2336
lfingers 7.12502
lthumb 12.8444 79.8184
rfemur -8.48067 0.910007 20.1002
rtibia 69.9465
rfoot 9.28217 -9.50258
rtoes 7.78654
lfemur -9.55168 -5.67767 -26.6774
ltibia 22.9666
lfoot -4.00093 -1.20987
ltoes -4.24477
128
root 1.77382 18.0935 -5.10973 -6.13336 -3.32914 2.95666
lowerback 16.4571 1.02671 -2.55307
upperback 0.015256 0.987117 1.2186
thorax -9.31227 0.622328 2.53141
lowerneck -11.4399 -0.958375 -3.25035
upperneck 23.7109 -0.529028 -0.487739
head 9.35945 -0.590478 0.322135
rclavicle 1.18153e-014 1.27222e-014
rhumerus -33.7763 -7.60586 -78.3541
rradius 29.2396
rwrist 3.52228
rhand -14.3788 14.3736
rfingers 7.12502
rthumb 11.7638 -15.276
lclavicle 1.18153e-014 1.27222e-014
lhumerus -39.2934 5.16374 85.6778
lradius 37.6592
lwrist 5.64555
lhand -12.9449 49.9718
lfingers 7.12502
lthumb 13.1463 79.5374
rfemur -10.0421 0.00903517 19.6234
rtibia 71.5105
rfoot 7.52828 -10.4051
rtoes 7.80699
lfemur -8.91763 -5.85464 -27.1299
ltibia 22.8457
lfoot -4.33448 -1.54341
ltoes -3.77232
129
root 1.76774 18.0899 -4.96296 -6.29794 -3.15978 3.14896
lowerback 16.6439 0.981966 -2.85672
upperback -0.36415 0.861982 1.20467
thorax -9.83354 0.589829 2.72006
lowerneck -9.48427 -0.790029 -2.88439
upperneck 23.07 -0.395084 -0.735687
head 8.76537 -0.510759 0.198501
rclavicle -8.27441e-015 -8.74653e-015
rhumerus -34.9391 -7.45926 -78.1986
rradius 29.3924
rwrist 3.63823
rhand -13.9867 13.8295
rfingers 7.12502
rthumb 12.1419 -15.7982
lclavicle -8.27441e-015 -8.74653e-015
lhumerus -40.2298 4.91438 85.5156
lradius 37.8858
lwrist 5.33409
lhand -12.8338 49.605
lfingers 7.12502
lthumb 13.2534 79.1637
rfemur -11.3715 -0.505763 19.306
rtibia 72.8457
rfoot 5.76744 -10.3534
rtoes 4.69407
lfemur -8.1179 -5.95549 -27.4754
ltibia 22.6466
lfoot -4.69602 -1.4702
ltoes -3.41102
130
root 1.7726 18.0832 -4.80506 -6.41344 -3.27025 3.49821
lowerback 16.5556 0.979605 -3.13826
upperback -0.119675 0.801824 1.14748
thorax -9.51282 0.564387 2.83299
lowerneck -9.94396 -0.515692 -2.31864
upperneck 22.7841 0.0304487 -1.32732
head 8.74743 -0.320794 -0.0537242
rclavicle 1.31508e-014 3.18055e-015
rhumerus -34.6427 -7.56619 -78.2307
rradius 29.4623
rwrist 3.40375
rhand -12.349 10.1244
rfingers 7.12502
rthumb 13.7206 -19.4033
lclavicle 1.31508e-014 3.18055e-015
lhumerus -39.7004 4.8429 85.5373
lradius 37.9379
lwrist 5.43004
lhand -12.9614 49.546
lfingers 7.12502
lthumb 13.1304 79.1126
rfemur -12.7154 -0.774627 18.7907
rtibia 73.972
rfoot 4.49949 -10.5937
rtoes 3.82358
lfemur -7.42257 -5.82567 -28.0135
ltibia 22.605
lfoot -5.10742 -1.30152
ltoes -3.40449
131
root 1.77627 18.0807 -4.65432 -6.49595 -3.17223 3.88228
lowerback 16.4129 0.901651 -3.44956
upperback -0.010225 0.632501 1.0293
thorax -9.30143 0.489321 2.92322
lowerneck -10.4874 -0.623989 -1.56495
upperneck 23.6062 0.0131599 -2.39114
head 9.13247 -0.388601 -0.55093
rclavicle 8.19987e-015 1.43125e-014
rhumerus -34.6615 -7.49644 -78.3871
rradius 29.6461
rwrist 2.77326
rhand -12.9693 11.0367
rfingers 7.12502
rthumb 13.1228 -18.5304
lclavicle 8.19987e-015 1.43125e-014
lhumerus -39.4583 4.65649 85.472
lradius 38.0605
lwrist 5.51683
lhand -13.082 49.5028
lfingers 7.12502
lthumb 13.0141 79.0769
rfemur -14.114 -1.13438 18.2407
rtibia 74.8728
rfoot 3.63914 -10.523
rtoes 4.66865
lfemur -6.86226 -5.71104 -28.5727
ltibia 22.6925
lfoot -5.62552 -1.38756
ltoes -3.33154
132
root 1.77133 18.0744 -4.51301 -6.52032 -3.07892 4.01684
lowerback 16.5687 0.817278 -3.67854
upperback 0.260495 0.476253 1.05761
thorax -9.08235 0.416762 3.12191
lowerneck -11.4205 -0.697741 -1.61191
upperneck 24.1204 -0.00776985 -2.53413
head 9.48995 -0.430847 -0.603264
rclavicle -6.98231e-015 -1.59028e-015
rhumerus -34.0805 -7.45766 -78.506
rradius 29.7131
rwrist 2.40849
rhand -13.4662 11.2972
rfingers 7.12502
rthumb 12.6438 -18.3001
lclavicle -6.98231e-015 -1.59028e-015
lhumerus -38.6088 4.57559 85.5111
lradius 38.0485
lwrist 5.71846
lhand -13.2707 47.9023
lfingers 7.12502
lthumb 12.8322 77.4879
rfemur -15.595 -1.43329 18.0766
rtibia 75.5952
rfoot 4.81248 -10.6408
rtoes 13.083
lfemur -6.40953 -5.7182 -28.808
ltibia 22.8151
lfoot -6.06519 -1.37815
ltoes -3.60599
133
root 1.76953 18.0607 -4.3643 -6.60199 -3.12866 4.18975
lowerback 16.5223 0.806012 -3.90311
upperback 0.29258 0.421796 1.07177
thorax -9.01882 0.398998 3.27833
lowerneck -11.0008 -0.516298 -1.66352
upperneck 23.7536 0.190291 -2.34535
head 9.28219 -0.315142 -0.502359
rclavicle -1.30204e-014 3.18055e-015
rhumerus -34.2544 -7.57893 -78.3837
rradius 29.847
rwrist 2.41022
rhand -13.7862 11.8789
rfingers 7.12502
rthumb 12.3352 -17.7373
lclavicle -1.30204e-014 3.18055e-015
lhumerus -38.4804 4.30243 85.5472
lradius 38.2769
lwrist 6.18195
lhand -13.0549 50.1153
lfingers 7.12502
lthumb 13.0402 79.6877
rfemur -16.906 -1.57553 17.8781
rtibia 76.1157
rfoot 2.9422 -10.2687
rtoes 10.8566
lfemur -5.91208 -5.6883 -29.1097
ltibia 23.0175
lfoot -6.50023 -1.21303
ltoes -3.56866
134
root 1.76745 18.0506 -4.21476 -6.71203 -2.92623 4.38544
lowerback 16.5196 0.704352 -4.12971
upperback 0.411234 0.246519 1.08307
thorax -8.87338 0.319503 3.46142
lowerneck -10.8335 -0.339654 -1.73324
upperneck 23.2578 0.387989 -2.14846
head 9.07807 -0.200125 -0.397752
rclavicle 1.3418e-015 1.43125e-014
rhumerus -34.2549 -7.81773 -78.2509
rradius 30.1134
rwrist 2.42515
rhand -13.8947 13.1424
rfingers 7.12502
rthumb 12.2306 -16.4799
lclavicle 1.3418e-015 1.43125e-014
lhumerus -38.3574 4.2238 85.5734
lradius 38.923
lwrist 6.43786
lhand -12.9265 50.8061
lfingers 7.12502
lthumb 13.1641 80.3705
rfemur -18.0487 -1.93952 17.6127
rtibia 76.4103
rfoot 1.61894 -9.97091
rtoes 10.7856
lfemur -5.40393 -5.65877 -29.4417
ltibia 23.3068
lfoot -6.87633 -1.29236
ltoes -1.87014
135
root 1.76079 18.0423 -4.07545 -6.7185 -2.63185 4.42269
lowerback 16.831 0.526554 -4.19672
upperback 0.253004 -0.0177417 1.08121
thorax -9.1982 0.206679 3.5655
lowerneck -10.6083 -0.426108 -1.60435
upperneck 23.7323 0.332783 -2.51843
head 9.20181 -0.259844 -0.554557
rclavicle -9.29318e-015 -2.8625e-014
rhumerus -34.6635 -7.77136 -78.3277
rradius 30.7733
rwrist 1.69114
rhand -13.4438 11.431
rfingers 7.12502
rthumb 12.6654 -18.165
lclavicle -9.29318e-015 -2.8625e-014
lhumerus -38.8073 4.13377 85.4735
lradius 39.7853
lwrist 6.4386
lhand -13.1945 50.6054
lfingers 7.12502
lthumb 12.9057 80.1864
rfemur -19.3194 -2.31946 17.572
rtibia 76.516
rfoot -0.0234051 -9.67218
rtoes 11.8715
lfemur -5.04606 -5.75103 -29.5741
ltibia 23.6354
lfoot -7.47245 -1.45637
ltoes -2.7261
